<mxfile host="app.diagrams.net" modified="2023-12-28T06:02:15.539Z" agent="Mozilla/5.0 (Windows NT 10.0; Win64; x64) AppleWebKit/537.36 (KHTML, like Gecko) Chrome/120.0.0.0 Safari/537.36" etag="aeULnKo1k85bVTuzVbsx" version="22.1.15" type="device">
  <diagram name="Page-1" id="01ZKVzBvjwBgP0fCOcAR">
    <mxGraphModel dx="1434" dy="792" grid="1" gridSize="10" guides="1" tooltips="1" connect="1" arrows="1" fold="1" page="1" pageScale="1" pageWidth="850" pageHeight="1100" math="0" shadow="0">
      <root>
        <mxCell id="0" />
        <mxCell id="1" parent="0" />
        <mxCell id="D3iYeaAUMTNYMx9WWhKZ-48" value="" style="group" parent="1" vertex="1" connectable="0">
          <mxGeometry x="20" y="10" width="1290" height="871" as="geometry" />
        </mxCell>
        <mxCell id="D3iYeaAUMTNYMx9WWhKZ-2" value="NCF_Module" style="whiteSpace=wrap;strokeWidth=1;verticalAlign=top;fontSize=16;fillColor=none;rounded=1;fontFamily=Georgia;fontColor=#000000;strokeColor=#000000;container=0;" parent="D3iYeaAUMTNYMx9WWhKZ-48" vertex="1">
          <mxGeometry x="988" y="90" width="302" height="420" as="geometry" />
        </mxCell>
        <mxCell id="D3iYeaAUMTNYMx9WWhKZ-3" value="DotProduct" style="whiteSpace=wrap;strokeWidth=2;fontSize=16;rounded=1;fontFamily=Georgia;fontColor=#000000;strokeColor=#000000;container=0;fillColor=none;" parent="D3iYeaAUMTNYMx9WWhKZ-48" vertex="1">
          <mxGeometry x="1106" y="310" width="95" height="34" as="geometry" />
        </mxCell>
        <mxCell id="D3iYeaAUMTNYMx9WWhKZ-4" value="Embed1" style="whiteSpace=wrap;strokeWidth=2;fontSize=16;rounded=1;fontFamily=Georgia;fontColor=#000000;strokeColor=#000000;container=0;fillColor=none;" parent="D3iYeaAUMTNYMx9WWhKZ-48" vertex="1">
          <mxGeometry x="1043" y="144" width="72" height="34" as="geometry" />
        </mxCell>
        <mxCell id="D3iYeaAUMTNYMx9WWhKZ-5" value="Embed2" style="whiteSpace=wrap;strokeWidth=2;fontSize=16;rounded=1;fontFamily=Georgia;fontColor=#000000;strokeColor=#000000;container=0;fillColor=none;" parent="D3iYeaAUMTNYMx9WWhKZ-48" vertex="1">
          <mxGeometry x="1165" y="144" width="72" height="34" as="geometry" />
        </mxCell>
        <mxCell id="D3iYeaAUMTNYMx9WWhKZ-6" value="Models similarities" style="rounded=1;absoluteArcSize=1;arcSize=14;whiteSpace=wrap;strokeWidth=2;fontSize=16;fontFamily=Georgia;fontColor=#000000;strokeColor=#000000;container=0;fillColor=none;" parent="D3iYeaAUMTNYMx9WWhKZ-48" vertex="1">
          <mxGeometry x="1069" y="451" width="149" height="34" as="geometry" />
        </mxCell>
        <mxCell id="D3iYeaAUMTNYMx9WWhKZ-7" value="GNN_Module" style="whiteSpace=wrap;strokeWidth=1;verticalAlign=top;fontSize=16;fillStyle=auto;fillColor=none;strokeColor=#000000;rounded=1;labelBackgroundColor=none;fontFamily=Georgia;fontColor=#000000;container=0;" parent="D3iYeaAUMTNYMx9WWhKZ-48" vertex="1">
          <mxGeometry y="200" width="481" height="503" as="geometry" />
        </mxCell>
        <mxCell id="D3iYeaAUMTNYMx9WWhKZ-8" value="Customer2" style="whiteSpace=wrap;strokeWidth=2;fontSize=16;rounded=1;fontFamily=Georgia;fontColor=#000000;strokeColor=#000000;container=0;fillColor=none;" parent="D3iYeaAUMTNYMx9WWhKZ-48" vertex="1">
          <mxGeometry x="90" y="560" width="91" height="34" as="geometry" />
        </mxCell>
        <mxCell id="D3iYeaAUMTNYMx9WWhKZ-9" value="Customer1" style="whiteSpace=wrap;strokeWidth=2;fontSize=16;rounded=1;fontFamily=Georgia;fontColor=#000000;strokeColor=#000000;container=0;fillColor=none;" parent="D3iYeaAUMTNYMx9WWhKZ-48" vertex="1">
          <mxGeometry x="35" y="451" width="91" height="34" as="geometry" />
        </mxCell>
        <mxCell id="D3iYeaAUMTNYMx9WWhKZ-10" value="Customer3" style="whiteSpace=wrap;strokeWidth=2;fontSize=16;rounded=1;fontFamily=Georgia;fontColor=#000000;strokeColor=#000000;container=0;fillColor=none;" parent="D3iYeaAUMTNYMx9WWhKZ-48" vertex="1">
          <mxGeometry x="180" y="644" width="91" height="34" as="geometry" />
        </mxCell>
        <mxCell id="D3iYeaAUMTNYMx9WWhKZ-11" value="Graph Convolution" style="ellipse;aspect=fixed;strokeWidth=2;whiteSpace=wrap;fontSize=16;rounded=1;fontFamily=Georgia;fontColor=#000000;strokeColor=#000000;container=0;fillColor=none;" parent="D3iYeaAUMTNYMx9WWhKZ-48" vertex="1">
          <mxGeometry x="158" y="253" width="148" height="148" as="geometry" />
        </mxCell>
        <mxCell id="D3iYeaAUMTNYMx9WWhKZ-12" value="Encodes relationships" style="rounded=1;absoluteArcSize=1;arcSize=14;whiteSpace=wrap;strokeWidth=2;fontSize=16;fontFamily=Georgia;fontColor=#000000;strokeColor=#000000;container=0;fillColor=none;" parent="D3iYeaAUMTNYMx9WWhKZ-48" vertex="1">
          <mxGeometry x="277" y="451" width="170" height="34" as="geometry" />
        </mxCell>
        <mxCell id="D3iYeaAUMTNYMx9WWhKZ-13" value="RNN_Module" style="whiteSpace=wrap;strokeWidth=1;verticalAlign=top;fontSize=16;strokeColor=#000000;fillColor=none;rounded=1;fontFamily=Georgia;fontColor=#000000;container=0;" parent="D3iYeaAUMTNYMx9WWhKZ-48" vertex="1">
          <mxGeometry x="600" width="278" height="510" as="geometry" />
        </mxCell>
        <mxCell id="D3iYeaAUMTNYMx9WWhKZ-14" value="Encodes temporal patterns" style="rounded=1;absoluteArcSize=1;arcSize=14;whiteSpace=wrap;strokeWidth=2;fontSize=16;fontFamily=Georgia;fontColor=#000000;strokeColor=#000000;container=0;fillColor=none;" parent="D3iYeaAUMTNYMx9WWhKZ-48" vertex="1">
          <mxGeometry x="631" y="451" width="208" height="34" as="geometry" />
        </mxCell>
        <mxCell id="D3iYeaAUMTNYMx9WWhKZ-15" value="LSTM3" style="whiteSpace=wrap;strokeWidth=2;fontSize=16;rounded=1;fontFamily=Georgia;fontColor=#000000;strokeColor=#000000;container=0;fillColor=none;" parent="D3iYeaAUMTNYMx9WWhKZ-48" vertex="1">
          <mxGeometry x="733" y="310" width="60" height="34" as="geometry" />
        </mxCell>
        <mxCell id="D3iYeaAUMTNYMx9WWhKZ-16" value="LSTM2" style="whiteSpace=wrap;strokeWidth=2;fontSize=16;rounded=1;fontFamily=Georgia;fontColor=#000000;strokeColor=#000000;container=0;fillColor=none;" parent="D3iYeaAUMTNYMx9WWhKZ-48" vertex="1">
          <mxGeometry x="733" y="144" width="60" height="34" as="geometry" />
        </mxCell>
        <mxCell id="D3iYeaAUMTNYMx9WWhKZ-17" value="LSTM1" style="whiteSpace=wrap;strokeWidth=2;fontSize=16;rounded=1;fontFamily=Georgia;fontColor=#000000;strokeColor=#000000;container=0;fillColor=none;" parent="D3iYeaAUMTNYMx9WWhKZ-48" vertex="1">
          <mxGeometry x="732" y="40" width="60" height="34" as="geometry" />
        </mxCell>
        <mxCell id="D3iYeaAUMTNYMx9WWhKZ-18" value="RNN" style="whiteSpace=wrap;strokeWidth=2;fontSize=16;rounded=1;fontFamily=Georgia;fontColor=#000000;strokeColor=#000000;container=0;fillColor=none;" parent="D3iYeaAUMTNYMx9WWhKZ-48" vertex="1">
          <mxGeometry x="516" y="310" width="45" height="34" as="geometry" />
        </mxCell>
        <mxCell id="D3iYeaAUMTNYMx9WWhKZ-19" value="NCF" style="whiteSpace=wrap;strokeWidth=2;fontSize=16;rounded=1;fontFamily=Georgia;fontColor=#000000;strokeColor=#000000;container=0;fillColor=none;" parent="D3iYeaAUMTNYMx9WWhKZ-48" vertex="1">
          <mxGeometry x="910" y="310" width="44" height="34" as="geometry" />
        </mxCell>
        <mxCell id="D3iYeaAUMTNYMx9WWhKZ-20" value="Concat" style="whiteSpace=wrap;strokeWidth=2;fontSize=16;rounded=1;fontFamily=Georgia;fontColor=#000000;strokeColor=#000000;container=0;fillColor=none;" parent="D3iYeaAUMTNYMx9WWhKZ-48" vertex="1">
          <mxGeometry x="707" y="560" width="65" height="34" as="geometry" />
        </mxCell>
        <mxCell id="D3iYeaAUMTNYMx9WWhKZ-21" value="DenseLayer1" style="whiteSpace=wrap;strokeWidth=2;fontSize=16;rounded=1;fontFamily=Georgia;fontColor=#000000;strokeColor=#000000;container=0;fillColor=none;" parent="D3iYeaAUMTNYMx9WWhKZ-48" vertex="1">
          <mxGeometry x="687" y="644" width="105" height="34" as="geometry" />
        </mxCell>
        <mxCell id="D3iYeaAUMTNYMx9WWhKZ-22" value="DenseLayer2" style="whiteSpace=wrap;strokeWidth=2;fontSize=16;rounded=1;fontFamily=Georgia;fontColor=#000000;strokeColor=#000000;container=0;fillColor=none;" parent="D3iYeaAUMTNYMx9WWhKZ-48" vertex="1">
          <mxGeometry x="687" y="753" width="105" height="34" as="geometry" />
        </mxCell>
        <mxCell id="D3iYeaAUMTNYMx9WWhKZ-23" value="Churn Probability" style="rounded=1;absoluteArcSize=1;arcSize=14;whiteSpace=wrap;strokeWidth=2;fontSize=16;fontFamily=Georgia;fontColor=#000000;strokeColor=#000000;container=0;fillColor=none;" parent="D3iYeaAUMTNYMx9WWhKZ-48" vertex="1">
          <mxGeometry x="670" y="837" width="140" height="34" as="geometry" />
        </mxCell>
        <mxCell id="D3iYeaAUMTNYMx9WWhKZ-24" value="" style="curved=1;startArrow=none;endArrow=block;exitX=0.9908577110186975;exitY=1.0028722426470589;entryX=0.36648011818910275;entryY=0.0057444852941176475;rounded=1;fontSize=12;strokeColor=#000000;fontColor=#000000;" parent="D3iYeaAUMTNYMx9WWhKZ-48" source="D3iYeaAUMTNYMx9WWhKZ-18" target="D3iYeaAUMTNYMx9WWhKZ-14" edge="1">
          <mxGeometry relative="1" as="geometry">
            <Array as="points">
              <mxPoint x="666" y="426" />
            </Array>
          </mxGeometry>
        </mxCell>
        <mxCell id="D3iYeaAUMTNYMx9WWhKZ-25" value="" style="curved=1;startArrow=none;endArrow=block;exitX=0.8511828861452594;exitY=1.001319679054054;entryX=0.3546905090161063;entryY=0.0057444852941176475;rounded=1;fontSize=12;strokeColor=#000000;fontColor=#000000;" parent="D3iYeaAUMTNYMx9WWhKZ-48" source="D3iYeaAUMTNYMx9WWhKZ-11" target="D3iYeaAUMTNYMx9WWhKZ-12" edge="1">
          <mxGeometry relative="1" as="geometry">
            <Array as="points">
              <mxPoint x="302" y="426" />
            </Array>
          </mxGeometry>
        </mxCell>
        <mxCell id="D3iYeaAUMTNYMx9WWhKZ-26" value="" style="curved=1;startArrow=none;endArrow=block;exitX=0.924628198024431;exitY=1.0028722426470589;entryX=0.22841107132869898;entryY=0.0057444852941176475;rounded=1;fontSize=12;strokeColor=#000000;fontColor=#000000;" parent="D3iYeaAUMTNYMx9WWhKZ-48" source="D3iYeaAUMTNYMx9WWhKZ-19" target="D3iYeaAUMTNYMx9WWhKZ-6" edge="1">
          <mxGeometry relative="1" as="geometry">
            <Array as="points">
              <mxPoint x="1043" y="426" />
            </Array>
          </mxGeometry>
        </mxCell>
        <mxCell id="D3iYeaAUMTNYMx9WWhKZ-27" value="" style="curved=1;startArrow=none;endArrow=block;exitX=0.4927734375;exitY=1;entryX=0.4927734375;entryY=0;rounded=1;fontSize=12;strokeColor=#000000;fontColor=#000000;" parent="D3iYeaAUMTNYMx9WWhKZ-48" source="D3iYeaAUMTNYMx9WWhKZ-17" target="D3iYeaAUMTNYMx9WWhKZ-16" edge="1">
          <mxGeometry relative="1" as="geometry">
            <Array as="points" />
          </mxGeometry>
        </mxCell>
        <mxCell id="D3iYeaAUMTNYMx9WWhKZ-28" value="" style="curved=1;startArrow=none;endArrow=block;exitX=0.4927734375;exitY=1;entryX=0.4927734375;entryY=0.0028722426470588237;rounded=1;fontSize=12;strokeColor=#000000;fontColor=#000000;" parent="D3iYeaAUMTNYMx9WWhKZ-48" source="D3iYeaAUMTNYMx9WWhKZ-16" target="D3iYeaAUMTNYMx9WWhKZ-15" edge="1">
          <mxGeometry relative="1" as="geometry">
            <Array as="points" />
          </mxGeometry>
        </mxCell>
        <mxCell id="D3iYeaAUMTNYMx9WWhKZ-29" value="" style="curved=1;startArrow=none;endArrow=block;exitX=0.4927734375;exitY=1.0028722426470589;entryX=0.5548059931604854;entryY=0.0057444852941176475;rounded=1;fontSize=12;strokeColor=#000000;fontColor=#000000;" parent="D3iYeaAUMTNYMx9WWhKZ-48" source="D3iYeaAUMTNYMx9WWhKZ-15" target="D3iYeaAUMTNYMx9WWhKZ-14" edge="1">
          <mxGeometry relative="1" as="geometry">
            <Array as="points">
              <mxPoint x="763" y="426" />
            </Array>
          </mxGeometry>
        </mxCell>
        <mxCell id="D3iYeaAUMTNYMx9WWhKZ-30" value="" style="curved=1;startArrow=none;endArrow=block;exitX=0.5018887362637363;exitY=1.0057444852941178;entryX=0.2543012697867609;entryY=0.0057444852941176475;rounded=1;fontSize=12;strokeColor=#000000;fontColor=#000000;" parent="D3iYeaAUMTNYMx9WWhKZ-48" source="D3iYeaAUMTNYMx9WWhKZ-9" target="D3iYeaAUMTNYMx9WWhKZ-8" edge="1">
          <mxGeometry relative="1" as="geometry">
            <Array as="points">
              <mxPoint x="81" y="535" />
            </Array>
          </mxGeometry>
        </mxCell>
        <mxCell id="D3iYeaAUMTNYMx9WWhKZ-31" value="" style="curved=1;startArrow=none;endArrow=block;exitX=0.49693080357142855;exitY=1.0057444852941178;entryX=0.10101161858974349;entryY=0.0057444852941176475;rounded=1;fontSize=12;strokeColor=#000000;fontColor=#000000;" parent="D3iYeaAUMTNYMx9WWhKZ-48" source="D3iYeaAUMTNYMx9WWhKZ-8" target="D3iYeaAUMTNYMx9WWhKZ-10" edge="1">
          <mxGeometry relative="1" as="geometry">
            <Array as="points">
              <mxPoint x="135" y="619" />
            </Array>
          </mxGeometry>
        </mxCell>
        <mxCell id="D3iYeaAUMTNYMx9WWhKZ-32" value="" style="curved=1;startArrow=none;endArrow=block;exitX=1.0037774725274726;exitY=0.905851383835018;entryX=0.4855753900117738;entryY=0.0057444852941176475;rounded=1;fontSize=12;strokeColor=#000000;fontColor=#000000;" parent="D3iYeaAUMTNYMx9WWhKZ-48" source="D3iYeaAUMTNYMx9WWhKZ-9" target="D3iYeaAUMTNYMx9WWhKZ-10" edge="1">
          <mxGeometry relative="1" as="geometry">
            <Array as="points">
              <mxPoint x="222" y="510" />
              <mxPoint x="222" y="619" />
            </Array>
          </mxGeometry>
        </mxCell>
        <mxCell id="D3iYeaAUMTNYMx9WWhKZ-33" value="" style="curved=1;dashed=1;dashPattern=2 3;startArrow=none;endArrow=none;exitX=-0.002824113175675676;exitY=0.8292138120284793;entryX=0.5018887362637363;entryY=0.0057444852941176475;rounded=1;fontSize=12;strokeColor=#000000;fontColor=#000000;" parent="D3iYeaAUMTNYMx9WWhKZ-48" source="D3iYeaAUMTNYMx9WWhKZ-11" target="D3iYeaAUMTNYMx9WWhKZ-9" edge="1">
          <mxGeometry relative="1" as="geometry">
            <Array as="points">
              <mxPoint x="81" y="426" />
            </Array>
          </mxGeometry>
        </mxCell>
        <mxCell id="D3iYeaAUMTNYMx9WWhKZ-34" value="" style="curved=1;dashed=1;dashPattern=2 3;startArrow=none;endArrow=block;exitX=0.14248545355685216;exitY=1.001319679054054;entryX=0.6131243663330717;entryY=0.0057444852941176475;rounded=1;fontSize=12;strokeColor=#000000;fontColor=#000000;" parent="D3iYeaAUMTNYMx9WWhKZ-48" source="D3iYeaAUMTNYMx9WWhKZ-11" target="D3iYeaAUMTNYMx9WWhKZ-8" edge="1">
          <mxGeometry relative="1" as="geometry">
            <Array as="points">
              <mxPoint x="161" y="426" />
              <mxPoint x="161" y="535" />
            </Array>
          </mxGeometry>
        </mxCell>
        <mxCell id="D3iYeaAUMTNYMx9WWhKZ-35" value="" style="curved=1;dashed=1;dashPattern=2 3;startArrow=none;endArrow=block;exitX=0.5483575911938438;exitY=1.001319679054054;entryX=0.5745340503990057;entryY=0.0057444852941176475;rounded=1;fontSize=12;strokeColor=#000000;fontColor=#000000;" parent="D3iYeaAUMTNYMx9WWhKZ-48" source="D3iYeaAUMTNYMx9WWhKZ-11" target="D3iYeaAUMTNYMx9WWhKZ-10" edge="1">
          <mxGeometry relative="1" as="geometry">
            <Array as="points">
              <mxPoint x="242" y="426" />
              <mxPoint x="242" y="619" />
            </Array>
          </mxGeometry>
        </mxCell>
        <mxCell id="D3iYeaAUMTNYMx9WWhKZ-36" value="" style="curved=1;startArrow=none;endArrow=block;exitX=0.9984955658783784;exitY=0.7928203388878136;entryX=0.5924974286589635;entryY=0.0057444852941176475;rounded=1;fontSize=12;strokeColor=#000000;fontColor=#000000;" parent="D3iYeaAUMTNYMx9WWhKZ-48" source="D3iYeaAUMTNYMx9WWhKZ-11" target="D3iYeaAUMTNYMx9WWhKZ-12" edge="1">
          <mxGeometry relative="1" as="geometry">
            <Array as="points">
              <mxPoint x="401" y="426" />
            </Array>
          </mxGeometry>
        </mxCell>
        <mxCell id="D3iYeaAUMTNYMx9WWhKZ-37" value="" style="curved=1;startArrow=none;endArrow=block;exitX=0.4947916666666667;exitY=1;entryX=0.366854037855204;entryY=0.0028722426470588237;rounded=1;fontSize=12;strokeColor=#000000;fontColor=#000000;" parent="D3iYeaAUMTNYMx9WWhKZ-48" source="D3iYeaAUMTNYMx9WWhKZ-4" target="D3iYeaAUMTNYMx9WWhKZ-3" edge="1">
          <mxGeometry relative="1" as="geometry">
            <Array as="points">
              <mxPoint x="1079" y="228" />
            </Array>
          </mxGeometry>
        </mxCell>
        <mxCell id="D3iYeaAUMTNYMx9WWhKZ-38" value="" style="curved=1;startArrow=none;endArrow=block;exitX=0.4919704861111111;exitY=1;entryX=0.5867909272622934;entryY=0.0028722426470588237;rounded=1;fontSize=12;strokeColor=#000000;fontColor=#000000;" parent="D3iYeaAUMTNYMx9WWhKZ-48" source="D3iYeaAUMTNYMx9WWhKZ-5" target="D3iYeaAUMTNYMx9WWhKZ-3" edge="1">
          <mxGeometry relative="1" as="geometry">
            <Array as="points">
              <mxPoint x="1200" y="228" />
            </Array>
          </mxGeometry>
        </mxCell>
        <mxCell id="D3iYeaAUMTNYMx9WWhKZ-39" value="" style="curved=1;startArrow=none;endArrow=block;exitX=0.5024876644736842;exitY=1.0028722426470589;entryX=0.528751323306168;entryY=0.0057444852941176475;rounded=1;fontSize=12;strokeColor=#000000;fontColor=#000000;" parent="D3iYeaAUMTNYMx9WWhKZ-48" source="D3iYeaAUMTNYMx9WWhKZ-3" target="D3iYeaAUMTNYMx9WWhKZ-6" edge="1">
          <mxGeometry relative="1" as="geometry">
            <Array as="points">
              <mxPoint x="1154" y="426" />
            </Array>
          </mxGeometry>
        </mxCell>
        <mxCell id="D3iYeaAUMTNYMx9WWhKZ-40" value="" style="curved=1;startArrow=none;endArrow=block;exitX=0.501953125;exitY=1.0057444852941178;entryX=0.475598815247253;entryY=0.0057444852941176475;rounded=1;fontSize=12;strokeColor=#000000;fontColor=#000000;" parent="D3iYeaAUMTNYMx9WWhKZ-48" source="D3iYeaAUMTNYMx9WWhKZ-14" target="D3iYeaAUMTNYMx9WWhKZ-20" edge="1">
          <mxGeometry relative="1" as="geometry">
            <Array as="points">
              <mxPoint x="735" y="535" />
            </Array>
          </mxGeometry>
        </mxCell>
        <mxCell id="D3iYeaAUMTNYMx9WWhKZ-41" value="" style="curved=1;startArrow=none;endArrow=block;exitX=0.4974034926470588;exitY=1.0057444852941178;entryX=0.00009014423076923077;entryY=0.39918220362177276;rounded=1;fontSize=12;strokeColor=#000000;fontColor=#000000;" parent="D3iYeaAUMTNYMx9WWhKZ-48" source="D3iYeaAUMTNYMx9WWhKZ-12" target="D3iYeaAUMTNYMx9WWhKZ-20" edge="1">
          <mxGeometry relative="1" as="geometry">
            <Array as="points">
              <mxPoint x="362" y="535" />
            </Array>
          </mxGeometry>
        </mxCell>
        <mxCell id="D3iYeaAUMTNYMx9WWhKZ-42" value="" style="curved=1;startArrow=none;endArrow=block;exitX=0.5015860947986577;exitY=1.0057444852941178;entryX=1.003575721153846;entryY=0.40605311919676645;rounded=1;fontSize=12;strokeColor=#000000;fontColor=#000000;" parent="D3iYeaAUMTNYMx9WWhKZ-48" source="D3iYeaAUMTNYMx9WWhKZ-6" target="D3iYeaAUMTNYMx9WWhKZ-20" edge="1">
          <mxGeometry relative="1" as="geometry">
            <Array as="points">
              <mxPoint x="1144" y="535" />
            </Array>
          </mxGeometry>
        </mxCell>
        <mxCell id="D3iYeaAUMTNYMx9WWhKZ-43" value="" style="curved=1;startArrow=none;endArrow=block;exitX=0.5018329326923077;exitY=1.0057444852941178;entryX=0.5011346726190476;entryY=0.0057444852941176475;rounded=1;fontSize=12;strokeColor=#000000;fontColor=#000000;" parent="D3iYeaAUMTNYMx9WWhKZ-48" source="D3iYeaAUMTNYMx9WWhKZ-20" target="D3iYeaAUMTNYMx9WWhKZ-21" edge="1">
          <mxGeometry relative="1" as="geometry">
            <Array as="points" />
          </mxGeometry>
        </mxCell>
        <mxCell id="D3iYeaAUMTNYMx9WWhKZ-44" value="" style="curved=1;startArrow=none;endArrow=block;exitX=0.5011346726190476;exitY=1.0057444852941178;entryX=0.5011346726190476;entryY=0.0057444852941176475;rounded=1;fontSize=12;strokeColor=#000000;fontColor=#000000;" parent="D3iYeaAUMTNYMx9WWhKZ-48" source="D3iYeaAUMTNYMx9WWhKZ-21" target="D3iYeaAUMTNYMx9WWhKZ-22" edge="1">
          <mxGeometry relative="1" as="geometry">
            <Array as="points" />
          </mxGeometry>
        </mxCell>
        <mxCell id="D3iYeaAUMTNYMx9WWhKZ-45" value="" style="curved=1;startArrow=none;endArrow=block;exitX=0.5011346726190476;exitY=1.0057444852941178;entryX=0.49727957589285715;entryY=0.0057444852941176475;rounded=1;fontSize=12;strokeColor=#000000;fontColor=#000000;" parent="D3iYeaAUMTNYMx9WWhKZ-48" source="D3iYeaAUMTNYMx9WWhKZ-22" target="D3iYeaAUMTNYMx9WWhKZ-23" edge="1">
          <mxGeometry relative="1" as="geometry">
            <Array as="points" />
          </mxGeometry>
        </mxCell>
      </root>
    </mxGraphModel>
  </diagram>
</mxfile>
